<svg id="Capa_1" enable-background="new 0 0 512 512" fill="rgb(34, 192, 255)" height="512" viewBox="0 0 512 512" width="512" xmlns="http://www.w3.org/2000/svg"><g><g><path d="m144.462 356.696h-18.392c-4.142 0-7.5 3.358-7.5 7.5s3.358 7.5 7.5 7.5h18.392c4.142 0 7.5-3.358 7.5-7.5s-3.358-7.5-7.5-7.5z"/><path d="m186.84 356.696c-4.142 0-7.5 3.358-7.5 7.5s3.358 7.5 7.5 7.5h75.465c4.142 0 7.5-3.358 7.5-7.5s-3.358-7.5-7.5-7.5z"/><path d="m186.84 406.948h75.465c4.142 0 7.5-3.358 7.5-7.5s-3.358-7.5-7.5-7.5h-75.465c-4.142 0-7.5 3.358-7.5 7.5s3.358 7.5 7.5 7.5z"/><path d="m144.462 391.948h-18.392c-4.142 0-7.5 3.358-7.5 7.5s3.358 7.5 7.5 7.5h18.392c4.142 0 7.5-3.358 7.5-7.5s-3.358-7.5-7.5-7.5z"/><path d="m205.358 331.966c7.83 0 14.199-6.363 14.199-14.185v-2.081c3.454-1.154 6.817-2.546 10.067-4.165l1.5 1.497c5.526 5.514 14.517 5.514 20.043 0l15.801-15.766c2.689-2.683 4.17-6.248 4.17-10.039s-1.481-7.356-4.154-10.024l-1.488-1.493c1.606-3.227 2.995-6.565 4.157-9.992h2.131c7.812 0 14.168-6.363 14.168-14.185v-22.323c0-7.804-6.356-14.153-14.168-14.153h-2.125c-1.16-3.433-2.548-6.776-4.156-10.008l1.497-1.494c2.682-2.677 4.153-6.246 4.142-10.05s-1.505-7.365-4.168-9.99l-15.806-15.802c-5.527-5.515-14.519-5.516-20.044-.001l-1.509 1.506c-3.27-1.626-6.629-3.019-10.059-4.169v-2.086c0-7.822-6.37-14.185-14.199-14.185h-22.342c-7.83 0-14.2 6.363-14.2 14.185v2.089c-3.409 1.147-6.762 2.538-10.038 4.164l-1.53-1.535c-5.517-5.439-14.494-5.439-20.049.037l-15.796 15.792c-2.673 2.667-4.146 6.227-4.146 10.023 0 3.795 1.472 7.355 4.146 10.023l1.484 1.48c-1.617 3.236-3.007 6.583-4.162 10.021h-2.106c-7.83 0-14.199 6.349-14.199 14.153v22.324c0 7.821 6.37 14.185 14.199 14.185h2.112c1.154 3.426 2.542 6.763 4.155 9.989l-1.516 1.513c-5.463 5.518-5.463 14.496.032 20.045l15.833 15.798c5.516 5.438 14.493 5.438 20.058-.047l1.483-1.489c3.276 1.626 6.629 3.018 10.038 4.164v2.089c0 7.821 6.37 14.185 14.2 14.185zm-27.202-29.149c-5.829-1.475-11.527-3.834-16.936-7.014-2.949-1.733-6.698-1.252-9.114 1.171l-4.864 4.882-14.662-14.628 4.887-4.876c2.438-2.432 2.906-6.211 1.136-9.164-3.132-5.226-5.488-10.887-7.004-16.824-.848-3.321-3.839-5.645-7.267-5.645h-6.91v-20.662h6.91c3.431 0 6.424-2.328 7.269-5.653 1.511-5.948 3.867-11.617 7.002-16.848 1.77-2.954 1.301-6.732-1.136-9.165l-4.872-4.86 14.647-14.643 4.864 4.881c2.416 2.424 6.164 2.907 9.114 1.171 5.409-3.18 11.107-5.54 16.936-7.014 3.329-.842 5.661-3.837 5.661-7.271v-6.878h20.741v6.878c0 3.434 2.332 6.429 5.661 7.271 5.88 1.487 11.573 3.844 16.921 7.005 2.943 1.74 6.692 1.269 9.114-1.147l4.894-4.883 14.648 14.645-4.855 4.844c-2.429 2.424-2.904 6.188-1.151 9.139 3.117 5.25 5.481 10.938 7.025 16.906.856 3.309 3.842 5.621 7.261 5.621h6.879v20.662h-6.879c-3.415 0-6.399 2.307-7.259 5.612-1.549 5.958-3.914 11.639-7.027 16.883-1.748 2.944-1.281 6.698 1.136 9.123l4.872 4.889-14.649 14.616-4.894-4.883c-2.429-2.423-6.194-2.889-9.14-1.132-5.246 3.129-10.93 5.481-16.895 6.99-3.329.842-5.661 3.837-5.661 7.271v6.878h-20.741v-6.878c-.002-3.433-2.334-6.428-5.662-7.27z"/><path d="m244.365 240.372c0-27.607-22.502-50.067-50.162-50.067-27.677 0-50.194 22.46-50.194 50.067 0 27.625 22.517 50.099 50.194 50.099 27.66 0 50.162-22.474 50.162-50.099zm-85.356 0c0-19.336 15.788-35.067 35.194-35.067 19.389 0 35.162 15.731 35.162 35.067 0 19.354-15.773 35.099-35.162 35.099-19.406 0-35.194-15.745-35.194-35.099z"/><path d="m468.095 86.819h-24.112c-7.098 0-12.873 5.755-12.873 12.829v18.797h-25.867c.457-2.896.701-5.846.701-8.834 0-18.981-9.436-36.741-25.245-47.507-2.522-1.715-10.036-6.641-17.123-2.938-6.078 3.175-5.578 9.779-5.862 16.537-.012.282.047 30.662.047 30.662 0 6.339-4.841 11.664-11.112 12.338-6.254-.674-11.083-5.999-11.083-12.338 0 0 .051-30.38.047-30.662-.12-7.359.941-12.605-5.862-16.537-6.921-3.999-14.599 1.223-17.125 2.941-15.806 10.764-25.242 28.523-25.242 47.505 0 2.987.244 5.938.7 8.834h-207.194v-18.799c0-7.074-5.774-12.829-12.873-12.829h-24.112c-24.209.001-43.905 19.66-43.905 43.825v279.81c0 24.182 19.696 43.855 43.905 43.855h106.119c4.142 0 7.5-3.358 7.5-7.5s-3.358-7.5-7.5-7.5h-106.119c-15.938 0-28.905-12.944-28.905-28.855 0-15.894 12.967-28.824 28.905-28.824h24.112c7.098 0 12.873-5.755 12.873-12.829v-235.355h211.736c5.559 12.089 15.238 22.145 27.563 28.047v146.416c-19.818 9.518-32.803 29.744-32.803 51.874 0 18.981 9.436 36.741 25.245 47.507 1.854 1.261 6.492 4.417 11.566 4.416 1.833 0 3.723-.412 5.559-1.472 6.797-3.926 5.661-11.934 5.859-16.526.012-.287-.047-30.646-.047-30.646 0-6.339 4.829-11.664 11.083-12.338 6.271.674 11.112 5.999 11.112 12.338 0 0 .01 30.377.014 30.663.085 7.278-.999 12.582 5.798 16.508 6.92 3.998 14.602-1.228 17.128-2.946 15.806-10.764 25.242-28.523 25.242-47.505 0-22.119-12.984-42.344-32.803-51.872v-48.115c0-4.142-3.358-7.5-7.5-7.5s-7.5 3.358-7.5 7.5v53.067c0 3.134 1.949 5.938 4.887 7.03 16.698 6.206 27.916 22.236 27.916 39.889 0 13.843-6.815 26.817-18.254 34.81.045-.639.072-31.531.072-31.531 0-14.374-11.25-26.387-25.612-27.349-.334-.022-.669-.021-1.003 0-14.343.963-25.579 12.976-25.579 27.348 0 0 .027 30.892.072 31.531-11.441-7.995-18.254-20.968-18.254-34.81 0-17.663 11.217-33.692 27.912-39.887 2.94-1.091 4.891-3.896 4.891-7.032v-156.33c0-3.14-1.956-5.947-4.901-7.035-16.689-6.166-27.902-22.193-27.902-39.884 0-13.844 6.815-26.818 18.255-34.811-.046.641-.073 31.563-.073 31.563 0 14.373 11.236 26.386 25.58 27.348.333.022.669.022 1.002 0 14.362-.961 25.613-12.974 25.613-27.348l-.074-31.563c11.441 7.995 18.255 20.969 18.255 34.811 0 17.68-11.214 33.709-27.906 39.885-2.943 1.089-4.897 3.896-4.897 7.034v64.734c0 4.142 3.358 7.5 7.5 7.5s7.5-3.358 7.5-7.5v-59.774c12.322-5.907 21.999-15.961 27.559-28.045h30.409v235.355c0 7.074 5.774 12.829 12.873 12.829h24.112c15.938 0 28.905 12.931 28.905 28.824 0 15.911-12.967 28.855-28.905 28.855h-279.454c-4.142 0-7.5 3.358-7.5 7.5s3.358 7.5 7.5 7.5h279.454c24.209 0 43.905-19.673 43.905-43.855v-279.81c0-24.165-19.696-43.824-43.905-43.824zm-402.205 279.81h-21.985c-11.06 0-21.177 4.102-28.905 10.863v-246.849c0-15.894 12.967-28.824 28.905-28.824h21.985zm431.11 10.863c-7.729-6.761-17.845-10.863-28.905-10.863h-21.985v-264.81h21.984c15.938 0 28.905 12.931 28.905 28.824v246.849z"/></g></g></svg>